# xmcd
#
# Track frame offsets:
#	150
#	14094
#	28846
#	44019
#	59757
#	74111
#	88109
#	100108
#	115232
#	130620
#	145828
#	159278
#	176672
#	193974
#	205958
#	220875
#	240940
#	255541
#	266749
#	282775
#
# Disc length: 3950 seconds
#
# Revision: 0
# Processed by: cddbd v1.5.2PL0 Copyright (c) Steve Scherf et al.
# Submitted via: EasyCDDAExtractor 16.0.8.2
#
DISCID=370f6c14
DTITLE=Συλλογικός δίσκος - Όλα τα ρεμπέτικα 22
DYEAR=2008
DGENRE=Ρεμπέτικη
TTITLE0=Γλυκερία - Βάλε με στην αγκαλιά σου [Βαγγ. Παπάζογλου]
TTITLE1=Καζαντζίδης Στέλιος - Παραστράτησα για σένα [Κώστας Καπλάνης]
TTITLE2=Μπέλλου Σωτηρία - Μέσ' στα βαριά μεσάνυχτα [Τ. Λαβίδας-Κ. Μάνεσης]
TTITLE3=Ιακωβίδης Αγάθωνας - Ερηνάκι [Κώστας Σκαρβέλης]
TTITLE4=Δημητριανάκης Μανώλης - Πάλι τραγούδι θα σού πω [Σ. Περιστέρης-Μ. Μάτσ
TTITLE4=ας]
TTITLE5=Μαριώ-Κιουπρούλης Στέφανος ή Χοντρονάκος - Μάζεψε τα πράγματά σου [Π.Τ
TTITLE5=σαουσάκης-Λ.Μπουρνέλης]
TTITLE6=Ευσταθίου Δημήτρης - Ένα τσιγαράκι κι ένα τάληρο [Δ. Ευσταθίου]
TTITLE7=Γενίτσαρης Μιχάλης - Ο αλάνης [Μ. Γενίτσαρης]
TTITLE8=Γκολές Μπάμπης - Κατάστρεψες τα νιάτα μου[Γ.Παπαϊωάννου-Αλ.Αγγελόπουλο
TTITLE8=ς]
TTITLE9=Κεφάλας Στέλιος - Τα κάστρα του Γεντί Κουλέ (Δραπέτης τού)[Γ. Μητσάκης
TTITLE9=]
TTITLE10=Κυριαζής Γιάννης - Πόπη το σκυλάκι σου [Κ. Ρούκουνας]
TTITLE11=Άνευ ερμηνευτού - Οργανικό ζεϊμπέκικο [Ιορδ. Τσομίδης]
TTITLE12=Βουτσελά Βιβή - Αν περνάς κι αν δεν περνάς [παραδοσιακό]
TTITLE13=Μπογδάνος Γιάννης - Για σένα έγινα μπατίρης [Κ. Καπλάνης]
TTITLE14=Μπίνης Τάκης - Στου Πειραιά το λιμάνι [Τ. Μπίνης]
TTITLE15=Ucho Stroumbams - Ηλιοβασίλεμα σωστό [Γ. Λαύκας-Κ. Μάνεσης]
TTITLE16=Δασκαλάκης Μιχάλης - Ναζιάρα Μαριγούλα [Μ. Δασκαλάκης-Ελ. Δασκαλάκη]
TTITLE17=Μουφλουζέλης Γιώργος - Εγώ πήγαινα για ψάρια [Γ. Μουφλουζέλης]
TTITLE18=Παγιουμτζής Στράτος - Σαμπάχ μανές (Ανοίξετε τα μνήματα)[Σ. Παγιουμτζ
TTITLE18=ής]
TTITLE19=Ρούκουνας Κώστας ή Σαμιωτάκης - Μπαρμπούτι [Παν. Τούντας]
EXTD=
EXTT0=
EXTT1=
EXTT2=
EXTT3=
EXTT4=
EXTT5=
EXTT6=
EXTT7=
EXTT8=
EXTT9=
EXTT10=
EXTT11=
EXTT12=
EXTT13=
EXTT14=
EXTT15=
EXTT16=
EXTT17=
EXTT18=
EXTT19=
PLAYORDER=
